<svg xmlns="http://www.w3.org/2000/svg" xmlns:xlink="http://www.w3.org/1999/xlink" viewBox="0,0,256,256" width="100px" height="100px" fill-rule="nonzero"><g transform=""><g fill="#000000" fill-rule="nonzero" stroke="none" stroke-width="1" stroke-linecap="butt" stroke-linejoin="miter" stroke-miterlimit="10" stroke-dasharray="" stroke-dashoffset="0" font-family="none" font-weight="none" font-size="none" text-anchor="none" style="mix-blend-mode: normal"><g transform="translate(0,-20.48) scale(5.12,5.12)"><path d="M9,7l3,34l14,4l14,-4c1,-11.33 2,-22.67 3,-34zM33.76,35l-7.77,2l-7.76,-2l-0.39,-5h3.86l0.18,2l4.12,0.62l4.17,-0.62l0.41,-5h-12.99l0.96,-12h15.45l0.7,6h-3.7l-0.23,-2h-8.36l-0.32,4h12.66z"></path></g></g><g fill="#000000" fill-rule="nonzero" stroke="none" stroke-width="1" stroke-linecap="butt" stroke-linejoin="miter" stroke-miterlimit="10" stroke-dasharray="" stroke-dashoffset="0" font-family="none" font-weight="none" font-size="none" text-anchor="none" style="mix-blend-mode: normal"><g><path d="M91.07,217.688v29.12h-3.86v-13.46h-14.68v13.46h-3.84v-29.12h3.84v12.52h14.68v-12.52zM117.43,217.688v3.16h-9.36v25.96h-3.82v-25.96h-9.34v-3.16zM121.75,217.688h4.96l9.52,23.76l9.52,-23.76h4.98v29.12h-3.84v-11.34l0.36,-12.24l-9.56,23.58h-2.94l-9.54,-23.52l0.38,12.18v11.34h-3.84zM161.37,217.688v25.98h13.8v3.14h-17.66v-29.12zM183.25,232.968l-2.96,-0.76l1.48,-14.52h14.92v3.42h-11.78l-0.88,7.94c1.42667,-0.84 3.04667,-1.26 4.86,-1.26v0c2.65333,0 4.76,0.87667 6.32,2.63c1.56,1.75333 2.34,4.12333 2.34,7.11v0c0,3 -0.81,5.36333 -2.43,7.09c-1.62,1.72667 -3.88333,2.59 -6.79,2.59v0c-2.57333,0 -4.67333,-0.71333 -6.3,-2.14c-1.62667,-1.42667 -2.55333,-3.4 -2.78,-5.92v0h3.5c0.22667,1.66667 0.82,2.92333 1.78,3.77c0.96,0.84667 2.22667,1.27 3.8,1.27v0c1.72,0 3.07,-0.58667 4.05,-1.76c0.98,-1.17333 1.47,-2.79333 1.47,-4.86v0c0,-1.94667 -0.53,-3.51 -1.59,-4.69c-1.06,-1.18 -2.47,-1.77 -4.23,-1.77v0c-1.61333,0 -2.88,0.35333 -3.8,1.06v0z"></path></g></g></g></svg>