<svg xmlns="http://www.w3.org/2000/svg" xmlns:xlink="http://www.w3.org/1999/xlink" fill-rule="nonzero" viewBox="24.72 20.84 213.57 208.04"><g transform=""><g fill="#ffffff" fill-rule="nonzero" stroke="none" stroke-width="1" stroke-linecap="butt" stroke-linejoin="miter" stroke-miterlimit="10" stroke-dasharray="" stroke-dashoffset="0" font-family="none" font-weight="none" font-size="none" text-anchor="none" style="mix-blend-mode: normal"><path d="M128,192c-35.34622,0 -64,-28.65378 -64,-64v0c0,-35.34622 28.65378,-64 64,-64v0c35.34622,0 64,28.65378 64,64v0c0,35.34622 -28.65378,64 -64,64z" id="shape"/></g><g fill="#000000" fill-rule="nonzero" stroke="none" stroke-width="1" stroke-linecap="butt" stroke-linejoin="miter" stroke-miterlimit="10" stroke-dasharray="" stroke-dashoffset="0" font-family="none" font-weight="none" font-size="none" text-anchor="none" style="mix-blend-mode: normal"><g transform="scale(2.56,2.56)"><path d="M49.62305,8.14063c-0.56479,-0.00448 -1.10516,0.23004 -1.48764,0.64563c-0.38248,0.4156 -0.57143,0.97353 -0.52018,1.53601l0.42773,5.54883c0.04577,0.71944 0.47514,1.35859 1.12387,1.67297c0.64873,0.31438 1.41644,0.25536 2.00949,-0.1545c0.59305,-0.40986 0.91966,-1.10713 0.85492,-1.82511l-0.42773,-5.54883c-0.06569,-1.04794 -0.9305,-1.8667 -1.98047,-1.875zM62.61328,10.37305c-0.43783,-0.00255 -0.82641,0.27998 -0.95898,0.69726c-0.80246,2.41013 -3.17383,6.5332 -3.17383,6.5332c-0.18742,0.3092 -0.19336,0.69549 -0.01552,1.01031c0.17784,0.31481 0.51175,0.50913 0.87332,0.5082c0.36157,-0.00092 0.69449,-0.19693 0.87072,-0.51265c0,0 2.39421,-4.05633 3.34375,-6.9082c0.10586,-0.30488 0.05809,-0.6421 -0.12829,-0.90558c-0.18637,-0.26348 -0.48844,-0.42083 -0.81117,-0.42254zM39.57227,11.86328c-0.31725,0.01651 -0.60778,0.18277 -0.78275,0.44792c-0.17497,0.26515 -0.21356,0.59766 -0.10397,0.89583l1.76172,5.01758c0.11141,0.34601 0.40178,0.60433 0.75842,0.67468c0.35663,0.07035 0.72336,-0.05834 0.95782,-0.33613c0.23446,-0.27778 0.29973,-0.66091 0.17048,-1.00066l-1.75977,-5.01758c-0.14263,-0.42673 -0.55266,-0.70568 -1.00195,-0.68164zM27.60156,16.4082c-0.35275,0.00729 -0.67555,0.19991 -0.84948,0.50688c-0.17393,0.30697 -0.17323,0.68288 0.00182,0.98921l3.76367,6.80664c0.173,0.31271 0.49971,0.50935 0.85702,0.51582c0.35732,0.00647 0.69093,-0.17821 0.87514,-0.48445c0.18421,-0.30624 0.19101,-0.6875 0.01784,-1.00012l-3.76367,-6.80664c-0.1777,-0.33146 -0.52633,-0.53521 -0.90234,-0.52734zM78.68945,18.03711c-0.19081,-0.00315 -0.37853,0.04836 -0.54102,0.14844l-8.31641,4.96094c-0.31537,0.17896 -0.50917,0.51461 -0.50648,0.8772c0.00268,0.3626 0.20142,0.69534 0.5194,0.86962c0.31798,0.17428 0.70538,0.16279 1.01248,-0.03003l8.31445,-4.95898c0.39033,-0.22421 0.58277,-0.68156 0.47016,-1.11739c-0.1126,-0.43583 -0.5025,-0.74272 -0.95258,-0.7498zM48.61328,22.00195c-15.20471,0.07586 -25.80463,13.15389 -26.58008,27.89258c-0.80637,15.3199 12.57451,27.30737 27.86719,28.07227c16.01467,0.80079 27.27425,-12.8485 28.06445,-27.86133c0.81637,-15.51648 -12.59341,-27.30747 -27.86523,-28.07031c-0.49988,-0.02499 -0.99585,-0.03565 -1.48633,-0.0332zM88.62695,24.36719c-0.38285,0.00685 -0.75568,0.12344 -1.07422,0.33594l-10.24023,6.62305c-0.60553,0.3856 -0.95799,1.06613 -0.92352,1.78319c0.03446,0.71706 0.45055,1.36065 1.09028,1.6864c0.63972,0.32575 1.40495,0.28369 2.00512,-0.11021l10.24023,-6.62305c0.76186,-0.47689 1.11207,-1.40339 0.85614,-2.26499c-0.25593,-0.8616 -1.05514,-1.44668 -1.9538,-1.43032zM18.47461,24.82422c-0.88692,0.03677 -1.64349,0.65368 -1.85804,1.51504c-0.21455,0.86136 0.16426,1.76108 0.93031,2.20957l5.47656,3.3125c0.61198,0.38895 1.38653,0.41623 2.02435,0.0713c0.63782,-0.34493 1.03902,-1.00804 1.04856,-1.73309c0.00954,-0.72506 -0.37407,-1.39849 -1.0026,-1.76008l-5.47461,-3.31445c-0.34244,-0.21341 -0.74142,-0.31826 -1.14453,-0.30078zM48.63086,26c0.41928,-0.00182 0.84191,0.00792 1.26953,0.0293c0.23551,0.01176 0.46888,0.03319 0.70313,0.05078l-1.05273,2.53906c-0.13721,0.33007 -0.08787,0.70827 0.12942,0.9921c0.21729,0.28383 0.56951,0.43015 0.92395,0.38384c0.35444,-0.04631 0.65723,-0.27823 0.7943,-0.60836l1.27539,-3.07617c12.11977,1.81905 21.93819,11.39476 21.29688,23.58398c-0.03902,0.74128 -0.10915,1.47583 -0.20312,2.20508l-4.08984,1.65625c-0.34052,0.12745 -0.58504,0.42966 -0.63861,0.78928c-0.05357,0.35962 0.09224,0.71998 0.38082,0.94115c0.28858,0.22117 0.67446,0.2683 1.00779,0.12308l2.94531,-1.19336c-0.26308,1.24099 -0.60383,2.45452 -1.02148,3.63086l-4.92187,0.31836c-0.35658,0.02336 -0.67361,0.23518 -0.83166,0.55568c-0.15805,0.32049 -0.13311,0.70096 0.06543,0.99807c0.19854,0.29712 0.54051,0.46574 0.89709,0.44234l3.96484,-0.25781c-3.46766,7.74082 -10.34483,13.43855 -19.21484,13.86328l-0.86523,-2.6543c-0.13331,-0.42947 -0.53687,-0.71715 -0.98633,-0.70312c-0.31712,0.00971 -0.61081,0.16931 -0.79149,0.43011c-0.18067,0.2608 -0.22688,0.59185 -0.12453,0.89215l0.66602,2.04102c-0.03672,-0.00166 -0.07259,-0.00011 -0.10937,-0.00195c-1.29986,-0.06502 -2.58009,-0.22295 -3.83398,-0.46484l0.52344,-2.6582c0.06326,-0.29876 -0.01345,-0.61004 -0.20827,-0.8452c-0.19483,-0.23516 -0.48642,-0.36842 -0.79173,-0.36183c-0.4757,0.01014 -0.87839,0.35402 -0.96289,0.82227l-0.50977,2.58984c-1.25726,-0.33888 -2.48025,-0.76101 -3.6582,-1.26562l1.02539,-1.69727c0.18981,-0.30406 0.20238,-0.68646 0.03295,-1.00233c-0.16943,-0.31587 -0.49496,-0.51691 -0.85326,-0.52697c-0.36589,-0.01044 -0.70826,0.17985 -0.89258,0.49609l-1.12695,1.86523c-1.01634,-0.52785 -1.99248,-1.11455 -2.91992,-1.75977l1.95508,-2.27344c0.26083,-0.29534 0.32393,-0.7163 0.16117,-1.07514c-0.16276,-0.35884 -0.52105,-0.58866 -0.91507,-0.58697c-0.29443,0.00182 -0.57309,0.1333 -0.76172,0.35938l-2.03711,2.36914c-0.82753,-0.67709 -1.61263,-1.39712 -2.33789,-2.16602l1.73633,-2.44531c0.22149,-0.30335 0.25434,-0.70523 0.08505,-1.04052c-0.16929,-0.33529 -0.51218,-0.54746 -0.88778,-0.54932c-0.3297,-0.0011 -0.63877,0.16037 -0.82617,0.43164l-1.45117,2.04102c-3.11778,-3.94262 -4.89653,-8.81385 -4.61719,-14.12109c0.0011,-0.02094 0.00276,-0.04157 0.00391,-0.0625l5.39258,2.53711c0.32512,0.16682 0.71534,0.14304 1.01779,-0.06203c0.30245,-0.20506 0.46899,-0.55876 0.43437,-0.92253c-0.03462,-0.36377 -0.26489,-0.6797 -0.60059,-0.82403l-6.04883,-2.84766c0.1022,-0.81322 0.23799,-1.61531 0.4043,-2.40625l4.42773,2.89453c0.29902,0.2069 0.68678,0.23521 1.01267,0.07392c0.32589,-0.16129 0.53857,-0.48676 0.55542,-0.84999c0.01685,-0.36323 -0.16478,-0.70699 -0.47434,-0.89776l-5.00977,-3.27539c1.4791,-5.14017 4.32511,-9.63389 8.2207,-12.77539l1.92383,3.31445c0.27776,0.47786 0.89031,0.64007 1.36816,0.3623c0.47786,-0.27776 0.64007,-0.89031 0.3623,-1.36816l-2.0293,-3.49609c2.55471,-1.69401 5.48469,-2.84285 8.7168,-3.28711l-0.5,3.42969c-0.06353,0.35912 0.07345,0.72435 0.35748,0.95311c0.28403,0.22876 0.67006,0.28478 1.00739,0.14619c0.33733,-0.13859 0.57248,-0.44982 0.61365,-0.81219l0.57031,-3.90234c0.29082,-0.01252 0.58188,-0.02606 0.87695,-0.02734zM57.79688,36.28125c-0.627,0.027 -1.11294,0.5605 -1.08594,1.1875c0.029,0.628 0.55855,1.11294 1.18555,1.08594c0.627,-0.027 1.11394,-0.55855 1.08594,-1.18555c-0.027,-0.627 -0.55855,-1.11489 -1.18555,-1.08789zM13.65234,36.68164c-0.50136,0.01074 -0.91725,0.39112 -0.97257,0.88954c-0.05532,0.49841 0.26702,0.96074 0.75382,1.08117l6.68164,1.7793c0.34542,0.09216 0.71376,-0.00698 0.96626,-0.26007c0.2525,-0.25308 0.35079,-0.62166 0.25783,-0.96686c-0.09296,-0.34521 -0.36303,-0.61459 -0.70847,-0.70666l-6.68164,-1.7793c-0.09654,-0.02719 -0.19662,-0.03969 -0.29687,-0.03711zM88.35156,39.12891c-0.01368,0.00037 -0.02736,0.00102 -0.04102,0.00195c-0.0235,0.00113 -0.04695,0.00308 -0.07031,0.00586l-8.26562,0.88086c-0.36277,0.02839 -0.68149,0.25158 -0.83222,0.58278c-0.15073,0.33119 -0.10968,0.71812 0.10719,1.01032c0.21687,0.29219 0.57532,0.44354 0.93598,0.39519l8.26758,-0.87891c0.54195,-0.04034 0.95262,-0.50588 0.92503,-1.04862c-0.02759,-0.54275 -0.48335,-0.96424 -1.02659,-0.94942zM62.29492,40.22461c-0.627,0.027 -1.11489,0.55855 -1.08789,1.18555c0.029,0.627 0.5605,1.11294 1.1875,1.08594c0.627,-0.027 1.11394,-0.55855 1.08594,-1.18555c-0.027,-0.627 -0.55855,-1.11294 -1.18555,-1.08594zM62.85938,46.2207c-0.627,0.027 -1.11489,0.55855 -1.08789,1.18555c0.027,0.627 0.55855,1.11294 1.18555,1.08594c0.627,-0.027 1.11489,-0.55855 1.08789,-1.18555c-0.027,-0.627 -0.55855,-1.11394 -1.18555,-1.08594zM18.30859,46.7793c-0.02345,-0.00017 -0.04691,0.00048 -0.07031,0.00195l-7.60351,0.31836c-0.36191,0.00807 -0.69121,0.21108 -0.86099,0.5308c-0.16978,0.31972 -0.15353,0.70623 0.04248,1.01057c0.19601,0.30434 0.54119,0.47901 0.9025,0.45668l7.60352,-0.31836c0.54741,-0.01052 0.9846,-0.45925 0.98086,-1.00675c-0.00374,-0.5475 -0.44703,-0.99021 -0.99453,-0.99325zM92.06445,48.4043l-10.20117,0.07617c-0.36025,-0.002 -0.69373,0.18991 -0.87301,0.50238c-0.17928,0.31247 -0.17665,0.69722 0.00689,1.00722c0.18354,0.30999 0.51961,0.49732 0.87979,0.4904l10.20313,-0.07617c0.36011,0.00143 0.69318,-0.19085 0.87202,-0.50341c0.17884,-0.31256 0.17584,-0.69714 -0.00787,-1.00687c-0.1837,-0.30973 -0.51974,-0.49678 -0.87978,-0.48972zM18.47266,54.14258c-0.1238,-0.00248 -0.24698,0.01805 -0.36328,0.06055l-7.60547,2.65039c-0.3469,0.10989 -0.60674,0.39954 -0.67846,0.75629c-0.07172,0.35675 0.05599,0.72431 0.33347,0.95973c0.27748,0.23542 0.66093,0.30154 1.00124,0.17265l7.60742,-2.65039c0.46236,-0.15325 0.74707,-0.61731 0.6742,-1.09893c-0.07287,-0.48161 -0.48212,-0.84068 -0.96912,-0.85029zM81.32813,55.05078c-1.07292,0.01944 -1.93934,0.88208 -1.96346,1.95491c-0.02412,1.07283 0.80265,1.97354 1.87361,2.04118l7.97656,0.58008c1.10187,0.07982 2.05983,-0.74871 2.13965,-1.85059c0.07982,-1.10187 -0.74871,-2.05983 -1.85059,-2.13965l-7.97656,-0.58008c-0.06627,-0.00526 -0.13276,-0.00722 -0.19922,-0.00586zM18.4082,61.01953c-0.38261,0.01317 -0.75341,0.13586 -1.06836,0.35352l-5.29687,3.55078c-0.59392,0.39769 -0.93054,1.08205 -0.88302,1.79525c0.04751,0.71319 0.47194,1.34685 1.11337,1.66224c0.64143,0.31539 1.4024,0.26459 1.99622,-0.13327l5.29883,-3.55078c0.75528,-0.48915 1.09095,-1.42244 0.82024,-2.2806c-0.27071,-0.85816 -1.08115,-1.42991 -1.9804,-1.39713zM78.24023,63.58789c-0.03387,-0.00107 -0.06776,-0.00042 -0.10156,0.00195c-0.48116,0.02794 -0.87395,0.39509 -0.93426,0.87327c-0.06031,0.47818 0.22901,0.93136 0.68817,1.0779l6.94531,2.33984c0.34173,0.12682 0.72541,0.05768 1.00136,-0.18047c0.27596,-0.23815 0.4005,-0.60757 0.32504,-0.96418c-0.07546,-0.35661 -0.33896,-0.64393 -0.68773,-0.74988l-6.94336,-2.3418c-0.09427,-0.03342 -0.19303,-0.05252 -0.29297,-0.05664zM24.02148,67.6543c-0.29469,0.0165 -0.56704,0.16233 -0.74414,0.39844l-3.08203,3.98242c-0.33817,0.43687 -0.25816,1.06515 0.17871,1.40332c0.43687,0.33817 1.06515,0.25816 1.40332,-0.17871l3.08203,-3.98437c0.24519,-0.30829 0.28657,-0.7318 0.10571,-1.08172c-0.18087,-0.34993 -0.55029,-0.5611 -0.9436,-0.53937zM74,69.36719c-0.42487,-0.01208 -0.81097,0.24571 -0.96266,0.64276c-0.1517,0.39705 -0.03585,0.84661 0.28884,1.12091l4.53125,3.93555c0.26969,0.23451 0.644,0.30731 0.98192,0.19098c0.33792,-0.11633 0.58811,-0.40411 0.6563,-0.75493c0.06819,-0.35082 -0.05598,-0.71137 -0.32572,-0.94581l-4.5332,-3.93555c-0.1757,-0.157 -0.4012,-0.24692 -0.63672,-0.25391zM29.14258,73.36523c-0.40191,-0.01611 -0.77435,0.21013 -0.94531,0.57422l-3.42187,7.01953c-0.16845,0.32248 -0.14849,0.711 0.05212,1.01451c0.20061,0.30352 0.55023,0.47414 0.91293,0.44555c0.3627,-0.0286 0.68126,-0.2519 0.83183,-0.58311l3.42383,-7.01953c0.15389,-0.30389 0.14252,-0.66522 -0.03017,-0.95884c-0.17269,-0.29362 -0.48296,-0.47915 -0.82335,-0.49233zM66.73633,75.4375c-0.88734,-0.01458 -1.67818,0.55726 -1.94238,1.40448c-0.26419,0.84722 0.06145,1.76722 0.7998,2.25958l6.01172,4.12891c0.58928,0.40449 1.3496,0.46385 1.99451,0.1557c0.64491,-0.30815 1.07641,-0.93697 1.13193,-1.64956c0.05552,-0.71259 -0.27337,-1.40066 -0.86277,-1.80498l-6.00977,-4.12695c-0.32883,-0.23269 -0.72026,-0.36067 -1.12305,-0.36719zM35.81836,76.92188c-0.47599,-0.01302 -0.89514,0.31136 -1.00195,0.77539l-1.37109,5.55859c-0.08559,0.34719 0.02057,0.71367 0.2785,0.96134c0.25792,0.24767 0.62841,0.3389 0.97184,0.2393c0.34343,-0.0996 0.60762,-0.37488 0.69302,-0.72212l1.37109,-5.55859c0.07764,-0.2955 0.01595,-0.61027 -0.16749,-0.8546c-0.18344,-0.24433 -0.46849,-0.39141 -0.77392,-0.39931zM43.07617,78.23047c-1.026,0.04883 -1.84824,0.86685 -1.90234,1.89258l-0.41797,6.2168c-0.07389,1.10241 0.75989,2.05599 1.8623,2.12988c1.10241,0.07389 2.05599,-0.75989 2.12988,-1.86231l0.41797,-6.2168c0.04669,-0.57356 -0.15592,-1.13945 -0.55605,-1.55304c-0.40013,-0.41359 -0.959,-0.63481 -1.53379,-0.60712zM57.98047,79.55273c-0.3352,-0.00439 -0.65031,0.15945 -0.83924,0.43637c-0.18893,0.27692 -0.22656,0.63008 -0.10021,0.94059l2.95703,7.5625c0.20117,0.51453 0.78137,0.76856 1.2959,0.56738c0.51453,-0.20117 0.76856,-0.78137 0.56738,-1.2959l-2.95703,-7.5625c-0.1449,-0.38586 -0.51169,-0.64331 -0.92383,-0.64844zM50.59766,80.01563c-0.55151,-0.00319 -1.0015,0.44069 -1.00586,0.99219l-0.16602,7.37695c-0.0124,0.55228 0.42525,1.01006 0.97754,1.02246c0.55228,0.0124 1.01006,-0.42525 1.02246,-0.97754l0.16406,-7.37695c0.01001,-0.27023 -0.08983,-0.53299 -0.27676,-0.72839c-0.18693,-0.1954 -0.44502,-0.30677 -0.71543,-0.30872z"/></g></g></g></svg>